<?xml version="1.0" encoding="UTF-8" standalone="no"?>
<!DOCTYPE svg PUBLIC "-//W3C//DTD SVG 1.1//EN"
 "http://www.w3.org/Graphics/SVG/1.1/DTD/svg11.dtd">
<!-- Generated by graphviz version 2.43.0 (0)
 -->
<!-- Title: components/i2c_bus/i2c_bus.h Pages: 1 -->
<svg width="158pt" height="93pt"
 viewBox="0.00 0.00 158.00 93.00" xmlns="http://www.w3.org/2000/svg" xmlns:xlink="http://www.w3.org/1999/xlink">
<g id="graph0" class="graph" transform="scale(1 1) rotate(0) translate(4 89)">
<title>components/i2c_bus/i2c_bus.h</title>
<!-- Node1 -->
<g id="Node000001" class="node">
<title>Node1</title>
<g id="a_Node000001"><a xlink:title="Thread&#45;safe I2C bus access for multiple sensors.">
<polygon fill="#999999" stroke="#666666" points="130.5,-85 14.5,-85 14.5,-55 130.5,-55 130.5,-85"/>
<text text-anchor="start" x="22.5" y="-73" font-family="Helvetica,sans-Serif" font-size="10.00">components/i2c_bus</text>
<text text-anchor="middle" x="72.5" y="-62" font-family="Helvetica,sans-Serif" font-size="10.00">/i2c_bus.h</text>
</a>
</g>
</g>
<!-- Node2 -->
<g id="Node000002" class="node">
<title>Node2</title>
<g id="a_Node000002"><a xlink:title=" ">
<polygon fill="#e0e0e0" stroke="#999999" points="61,-19 0,-19 0,0 61,0 61,-19"/>
<text text-anchor="middle" x="30.5" y="-7" font-family="Helvetica,sans-Serif" font-size="10.00">esp_err.h</text>
</a>
</g>
</g>
<!-- Node1&#45;&gt;Node2 -->
<g id="edge1_Node000001_Node000002" class="edge">
<title>Node1&#45;&gt;Node2</title>
<g id="a_edge1_Node000001_Node000002"><a xlink:title=" ">
<path fill="none" stroke="#63b8ff" d="M62.33,-54.84C56.42,-46.61 48.94,-36.18 42.71,-27.51"/>
<polygon fill="#63b8ff" stroke="#63b8ff" points="45.47,-25.35 36.79,-19.27 39.78,-29.43 45.47,-25.35"/>
</a>
</g>
</g>
<!-- Node3 -->
<g id="Node000003" class="node">
<title>Node3</title>
<g id="a_Node000003"><a xlink:title=" ">
<polygon fill="#e0e0e0" stroke="#999999" points="150,-19 79,-19 79,0 150,0 150,-19"/>
<text text-anchor="middle" x="114.5" y="-7" font-family="Helvetica,sans-Serif" font-size="10.00">driver/i2c.h</text>
</a>
</g>
</g>
<!-- Node1&#45;&gt;Node3 -->
<g id="edge2_Node000001_Node000003" class="edge">
<title>Node1&#45;&gt;Node3</title>
<g id="a_edge2_Node000001_Node000003"><a xlink:title=" ">
<path fill="none" stroke="#63b8ff" d="M82.67,-54.84C88.58,-46.61 96.06,-36.18 102.29,-27.51"/>
<polygon fill="#63b8ff" stroke="#63b8ff" points="105.22,-29.43 108.21,-19.27 99.53,-25.35 105.22,-29.43"/>
</a>
</g>
</g>
</g>
</svg>
